<?xml version="1.0" encoding="UTF-8" standalone="no"?>
<!-- Created with Inkscape (http://www.inkscape.org/) -->

<svg
   xmlns:dc="http://purl.org/dc/elements/1.1/"
   xmlns:cc="http://creativecommons.org/ns#"
   xmlns:rdf="http://www.w3.org/1999/02/22-rdf-syntax-ns#"
   xmlns:svg="http://www.w3.org/2000/svg"
   xmlns="http://www.w3.org/2000/svg"
   xmlns:sodipodi="http://sodipodi.sourceforge.net/DTD/sodipodi-0.dtd"
   xmlns:inkscape="http://www.inkscape.org/namespaces/inkscape"
   width="744.09448819"
   height="1052.3622047"
   id="svg2"
   version="1.1"
   inkscape:version="0.48.5 r10040"
   sodipodi:docname="PlanProfile.pdf">
  <defs
     id="defs4">
    <marker
       inkscape:stockid="Arrow1Mend"
       orient="auto"
       refY="0.0"
       refX="0.0"
       id="Arrow1Mend"
       style="overflow:visible;">
      <path
         id="path3882"
         d="M 0.0,0.0 L 5.0,-5.0 L -12.5,0.0 L 5.0,5.0 L 0.0,0.0 z "
         style="fill-rule:evenodd;stroke:#000000;stroke-width:1.0pt;"
         transform="scale(0.4) rotate(180) translate(10,0)" />
    </marker>
    <marker
       inkscape:stockid="Arrow1Lend"
       orient="auto"
       refY="0.0"
       refX="0.0"
       id="Arrow1Lend"
       style="overflow:visible;">
      <path
         id="path3876"
         d="M 0.0,0.0 L 5.0,-5.0 L -12.5,0.0 L 5.0,5.0 L 0.0,0.0 z "
         style="fill-rule:evenodd;stroke:#000000;stroke-width:1.0pt;"
         transform="scale(0.8) rotate(180) translate(12.5,0)" />
    </marker>
  </defs>
  <sodipodi:namedview
     id="base"
     pagecolor="#ffffff"
     bordercolor="#666666"
     borderopacity="1.0"
     inkscape:pageopacity="0.0"
     inkscape:pageshadow="2"
     inkscape:zoom="1.4142136"
     inkscape:cx="342.91357"
     inkscape:cy="795.56859"
     inkscape:document-units="px"
     inkscape:current-layer="layer1"
     showgrid="false"
     inkscape:window-width="1173"
     inkscape:window-height="771"
     inkscape:window-x="96"
     inkscape:window-y="586"
     inkscape:window-maximized="0" />
  <metadata
     id="metadata7">
    <rdf:RDF>
      <cc:Work
         rdf:about="">
        <dc:format>image/svg+xml</dc:format>
        <dc:type
           rdf:resource="http://purl.org/dc/dcmitype/StillImage" />
        <dc:title></dc:title>
      </cc:Work>
    </rdf:RDF>
  </metadata>
  <g
     inkscape:label="Layer 1"
     inkscape:groupmode="layer"
     id="layer1">
    <text
       xml:space="preserve"
       style="font-size:10px;font-style:normal;font-variant:normal;font-weight:normal;font-stretch:normal;text-align:start;line-height:100%;letter-spacing:0.1px;word-spacing:0px;writing-mode:lr-tb;text-anchor:start;fill:#000000;fill-opacity:1;stroke:none;font-family:Times New Roman;-inkscape-font-specification:'Times New Roman,'"
       x="527.22949"
       y="112.02862"
       id="text2985"
       sodipodi:linespacing="100%"><tspan
         sodipodi:role="line"
         id="tspan2987"
         x="527.22949"
         y="112.02862">Natural</tspan><tspan
         sodipodi:role="line"
         x="527.22949"
         y="122.02862"
         id="tspan2989">Channel</tspan></text>
    <path
       style="fill:none;stroke:#000000;stroke-width:1px;stroke-linecap:butt;stroke-linejoin:miter;stroke-opacity:1"
       d="m 139.70563,153.9115 c 0,0 32.07454,-4.66022 48.21054,-6.06092 15.69268,-1.36222 31.46016,-2.87365 47.20039,-2.27284 15.59017,0.59508 30.90311,4.42044 46.44278,5.80838 15.60977,1.3942 31.27645,2.65135 46.94785,2.52538 15.68699,-0.12609 31.34758,-1.63088 46.94784,-3.283 15.46505,-1.6378 30.69315,-5.26592 46.19024,-6.56599 16.01942,-1.34389 32.15598,-2.08658 48.21054,-1.26269 15.71673,0.80655 46.82158,6.06092 46.82158,6.06092"
       id="path2997"
       inkscape:connector-curvature="0"
       sodipodi:nodetypes="caaaaaaac" />
    <path
       inkscape:connector-curvature="0"
       id="path2999"
       d="m 139.7053,118.8087 c 0,0 31.60161,-2.10185 47.4214,-2.77792 15.63017,-0.66797 31.28129,-1.80505 46.91632,-1.26269 16.63179,0.57693 33.14155,3.07857 49.69425,4.79822 16.66194,1.731 33.22345,4.58295 49.94678,5.55584 15.44453,0.8985 30.9512,0.82511 46.41125,0.25254 14.83367,-0.54936 29.58671,-2.45195 44.39094,-3.53553 15.12691,-1.1072 30.24214,-2.5251 45.4011,-3.03046 15.71422,-0.52387 47.16886,0 47.16886,0"
       style="fill:none;stroke:#000000;stroke-width:0.99999994px;stroke-linecap:butt;stroke-linejoin:miter;stroke-opacity:1"
       sodipodi:nodetypes="caaaaaaac" />
    <path
       inkscape:connector-curvature="0"
       id="path3001"
       d="m 139.45769,327.066 377.0987,0"
       style="fill:none;stroke:#000000;stroke-width:1px;stroke-linecap:butt;stroke-linejoin:miter;stroke-opacity:1" />
    <path
       style="fill:none;stroke:#000000;stroke-width:1px;stroke-linecap:butt;stroke-linejoin:miter;stroke-opacity:1"
       d="m 139.45769,305.09519 377.35091,0"
       id="path3003"
       inkscape:connector-curvature="0" />
    <path
       inkscape:connector-curvature="0"
       id="path3005"
       d="m 139.01838,195.32116 c 0,0 31.40564,6.41923 47.17415,8.10969 15.76852,1.69047 30.95297,2.33874 47.24263,2.04918 16.28967,-0.28957 33.10842,-3.56068 50.30936,-3.97747 17.20094,-0.4168 36.16398,0.81227 52.74511,1.60623 16.58112,0.79397 31.95871,2.84519 46.73152,3.05361 14.7728,0.20844 27.35192,-1.6067 41.78584,-1.54824 14.43392,0.0585 29.32177,2.81209 44.74413,2.02093 15.42236,-0.79117 47.34537,-7.04162 47.34537,-7.04162"
       style="fill:none;stroke:#000000;stroke-width:1px;stroke-linecap:butt;stroke-linejoin:miter;stroke-opacity:1"
       sodipodi:nodetypes="czzzzzzzc" />
    <path
       style="fill:none;stroke:#000000;stroke-width:0.99999994px;stroke-linecap:butt;stroke-linejoin:miter;stroke-opacity:1"
       d="m 138.65253,183.09121 378.07514,5.02022"
       id="path3007"
       inkscape:connector-curvature="0" />
    <path
       style="fill:none;stroke:#000000;stroke-width:1px;stroke-linecap:butt;stroke-linejoin:miter;stroke-opacity:1"
       d="m 173.74624,176.36867 3.89953,6.75418 3.8438,-6.65765 z"
       id="path3013"
       inkscape:connector-curvature="0" />
    <path
       style="fill:none;stroke:#000000;stroke-width:1px;stroke-linecap:butt;stroke-linejoin:miter;stroke-opacity:1"
       d="m 176.01908,185.46005 3.03046,0"
       id="path3015"
       inkscape:connector-curvature="0" />
    <path
       style="fill:none;stroke:#000000;stroke-width:1px;stroke-linecap:butt;stroke-linejoin:miter;stroke-opacity:1"
       d="m 173.99878,188.4905 7.07107,0"
       id="path3017"
       inkscape:connector-curvature="0" />
    <path
       style="fill:none;stroke:#000000;stroke-width:1px;stroke-linecap:butt;stroke-linejoin:miter;stroke-opacity:1"
       d="m 168.44294,201.09638 -4.29315,4.79823"
       id="path3019"
       inkscape:connector-curvature="0" />
    <path
       inkscape:connector-curvature="0"
       id="path3021"
       d="m 171.59966,201.60146 -3.6618,4.29315"
       style="fill:none;stroke:#000000;stroke-width:0.99999994px;stroke-linecap:butt;stroke-linejoin:miter;stroke-opacity:1" />
    <path
       style="fill:none;stroke:#000000;stroke-width:0.99999994px;stroke-linecap:butt;stroke-linejoin:miter;stroke-opacity:1"
       d="m 175.26146,202.23281 -3.53553,4.16688"
       id="path3023"
       inkscape:connector-curvature="0" />
    <path
       inkscape:connector-curvature="0"
       id="path3025"
       d="m 353.9322,204.37938 -3.78807,4.29315"
       style="fill:none;stroke:#000000;stroke-width:1px;stroke-linecap:butt;stroke-linejoin:miter;stroke-opacity:1" />
    <path
       style="fill:none;stroke:#000000;stroke-width:0.99999994px;stroke-linecap:butt;stroke-linejoin:miter;stroke-opacity:1"
       d="m 357.594,204.37938 -3.6618,4.29315"
       id="path3027"
       inkscape:connector-curvature="0" />
    <path
       inkscape:connector-curvature="0"
       id="path3029"
       d="m 361.2558,205.01073 -3.53553,4.16688"
       style="fill:none;stroke:#000000;stroke-width:0.99999994px;stroke-linecap:butt;stroke-linejoin:miter;stroke-opacity:1" />
    <path
       style="fill:none;stroke:#000000;stroke-width:1px;stroke-linecap:butt;stroke-linejoin:miter;stroke-opacity:1"
       d="m 139.45769,270.24927 377.0987,0"
       id="path3033"
       inkscape:connector-curvature="0" />
    <path
       inkscape:connector-curvature="0"
       id="path3035"
       d="m 139.45769,248.27846 377.35091,0"
       style="fill:none;stroke:#000000;stroke-width:1px;stroke-linecap:butt;stroke-linejoin:miter;stroke-opacity:1" />
    <text
       sodipodi:linespacing="100%"
       id="text3037"
       y="155.83771"
       x="441.28479"
       style="font-size:10px;font-style:normal;font-variant:normal;font-weight:normal;font-stretch:normal;text-align:start;line-height:100%;letter-spacing:0.1px;word-spacing:0px;writing-mode:lr-tb;text-anchor:start;fill:#000000;fill-opacity:1;stroke:none;font-family:Times New Roman;-inkscape-font-specification:'Times New Roman,'"
       xml:space="preserve"><tspan
         id="tspan3041"
         y="155.83771"
         x="441.28479"
         sodipodi:role="line">Plan</tspan></text>
    <path
       inkscape:connector-curvature="0"
       id="path3049"
       d="m 173.74624,298.12794 3.89953,6.75418 3.8438,-6.65765 z"
       style="fill:none;stroke:#000000;stroke-width:1px;stroke-linecap:butt;stroke-linejoin:miter;stroke-opacity:1" />
    <path
       inkscape:connector-curvature="0"
       id="path3051"
       d="m 176.01908,307.21932 3.03046,0"
       style="fill:none;stroke:#000000;stroke-width:1px;stroke-linecap:butt;stroke-linejoin:miter;stroke-opacity:1" />
    <path
       inkscape:connector-curvature="0"
       id="path3053"
       d="m 173.99878,310.24977 7.07107,0"
       style="fill:none;stroke:#000000;stroke-width:1px;stroke-linecap:butt;stroke-linejoin:miter;stroke-opacity:1" />
    <path
       inkscape:connector-curvature="0"
       id="path3055"
       d="m 168.44294,327.42236 -4.29315,4.79823"
       style="fill:none;stroke:#000000;stroke-width:1px;stroke-linecap:butt;stroke-linejoin:miter;stroke-opacity:1" />
    <path
       style="fill:none;stroke:#000000;stroke-width:0.99999994px;stroke-linecap:butt;stroke-linejoin:miter;stroke-opacity:1"
       d="m 171.97847,327.42236 -4.0406,4.79823"
       id="path3057"
       inkscape:connector-curvature="0" />
    <path
       inkscape:connector-curvature="0"
       id="path3059"
       d="m 175.51399,327.42236 -3.66179,4.79822"
       style="fill:none;stroke:#000000;stroke-width:0.99999994px;stroke-linecap:butt;stroke-linejoin:miter;stroke-opacity:1" />
    <path
       style="fill:none;stroke:#000000;stroke-width:1px;stroke-linecap:butt;stroke-linejoin:miter;stroke-opacity:1"
       d="m 352.11611,327.42236 -4.29315,4.79823"
       id="path3061"
       inkscape:connector-curvature="0" />
    <path
       inkscape:connector-curvature="0"
       id="path3063"
       d="m 355.65164,327.42236 -4.0406,4.79823"
       style="fill:none;stroke:#000000;stroke-width:0.99999994px;stroke-linecap:butt;stroke-linejoin:miter;stroke-opacity:1" />
    <path
       style="fill:none;stroke:#000000;stroke-width:0.99999994px;stroke-linecap:butt;stroke-linejoin:miter;stroke-opacity:1"
       d="m 359.18716,327.42236 -3.66179,4.79822"
       id="path3065"
       inkscape:connector-curvature="0" />
    <text
       xml:space="preserve"
       style="font-size:10px;font-style:normal;font-variant:normal;font-weight:normal;font-stretch:normal;text-align:start;line-height:100%;letter-spacing:0.1px;word-spacing:0px;writing-mode:lr-tb;text-anchor:start;fill:#000000;fill-opacity:1;stroke:none;font-family:Times New Roman;-inkscape-font-specification:'Times New Roman,'"
       x="441.28479"
       y="279.052"
       id="text3067"
       sodipodi:linespacing="100%"><tspan
         sodipodi:role="line"
         x="441.28479"
         y="279.052"
         id="tspan3069">Plan</tspan></text>
    <text
       sodipodi:linespacing="100%"
       id="text3071"
       y="336.90915"
       x="441.28479"
       style="font-size:10px;font-style:normal;font-variant:normal;font-weight:normal;font-stretch:normal;text-align:start;line-height:100%;letter-spacing:0.1px;word-spacing:0px;writing-mode:lr-tb;text-anchor:start;fill:#000000;fill-opacity:1;stroke:none;font-family:Times New Roman;-inkscape-font-specification:'Times New Roman,'"
       xml:space="preserve"><tspan
         id="tspan3073"
         y="336.90915"
         x="441.28479"
         sodipodi:role="line">Profile</tspan></text>
    <text
       xml:space="preserve"
       style="font-size:10px;font-style:normal;font-variant:normal;font-weight:normal;font-stretch:normal;text-align:start;line-height:100%;letter-spacing:0.1px;word-spacing:0px;writing-mode:lr-tb;text-anchor:start;fill:#000000;fill-opacity:1;stroke:none;font-family:Times New Roman;-inkscape-font-specification:'Times New Roman,'"
       x="441.28479"
       y="217.2663"
       id="text3075"
       sodipodi:linespacing="100%"><tspan
         sodipodi:role="line"
         x="441.28479"
         y="217.2663"
         id="tspan3077">Profile</tspan></text>
    <path
       style="fill:#96d4f5;fill-opacity:0.42920353;fill-rule:nonzero;stroke:none"
       d="m 140.05478,136.33851 0,-16.76001 1.875,-0.20049 c 7.0479,-0.75359 61.2394,-3.55038 77.23214,-3.98589 16.44537,-0.44784 33.49433,0.99053 80.71429,6.80962 31.91695,3.93325 31.60156,3.91226 58.92857,3.92249 24.43285,0.009 24.96136,-0.0139 49.10715,-2.14315 14.13891,-1.24681 30.58839,-2.56961 44.28571,-3.56129 11.58119,-0.83847 38.60242,-1.40099 52.23214,-1.08736 l 12.05357,0.27736 0,14.24437 c 0,7.8344 -0.0703,14.24437 -0.15625,14.24437 -0.0859,0 -4.22428,-0.63392 -9.19642,-1.40871 -27.90652,-4.34861 -40.3304,-5.29126 -61.18304,-4.64223 -19.10405,0.5946 -28.44835,1.46681 -46.07143,4.30037 -18.36699,2.95317 -27.65499,4.10159 -44.28571,5.47574 -14.13511,1.16795 -20.25821,1.37657 -34.2524,1.16702 -17.52443,-0.26242 -37.74235,-1.72545 -50.92618,-3.68518 -27.86032,-4.14134 -30.59228,-4.42438 -42.60873,-4.41444 -19.49648,0.0161 -45.61587,2.37838 -80.78412,7.30616 -3.53572,0.49542 -6.54911,0.90088 -6.69643,0.90102 -0.14732,1.4e-4 -0.26786,-7.54176 -0.26786,-16.75977 z"
       id="path3079"
       inkscape:connector-curvature="0" />
    <path
       style="fill:#96d4f5;fill-opacity:0.42920354;fill-rule:nonzero;stroke:none;stroke-width:1;stroke-linejoin:round;stroke-miterlimit:4;stroke-opacity:1;stroke-dasharray:1, 1;stroke-dashoffset:0"
       d="m 140.05478,259.16995 0,-10.35714 188.21429,0 188.21428,0 0,10.35714 0,10.35715 -188.21428,0 -188.21429,0 0,-10.35715 z"
       id="path3083"
       inkscape:connector-curvature="0" />
    <path
       style="fill:#96d4f5;fill-opacity:0.42920353;fill-rule:nonzero;stroke:none"
       d="m 140.05478,315.95739 0,-10.35543 188.21429,-0.002 188.21428,-0.002 0,10.35785 0,10.35784 -188.21428,0 -188.21429,0 0,-10.35542 z m 41.07143,-5.716 c 0,-0.66667 -0.2381,-0.71429 -3.57143,-0.71429 -3.33333,0 -3.57143,0.0476 -3.57143,0.71429 0,0.66666 0.2381,0.71428 3.57143,0.71428 3.33333,0 3.57143,-0.0476 3.57143,-0.71428 z m -1.78571,-3.03572 c 0,-0.40476 -0.43651,-0.53571 -1.78572,-0.53571 -1.34921,0 -1.78571,0.13095 -1.78571,0.53571 0,0.40476 0.4365,0.53572 1.78571,0.53572 1.34921,0 1.78572,-0.13096 1.78572,-0.53572 z"
       id="path3085"
       inkscape:connector-curvature="0" />
    <text
       sodipodi:linespacing="100%"
       id="text3855"
       y="243.45718"
       x="527.22949"
       style="font-size:10px;font-style:normal;font-variant:normal;font-weight:normal;font-stretch:normal;text-align:start;line-height:100%;letter-spacing:0.1px;word-spacing:0px;writing-mode:lr-tb;text-anchor:start;fill:#000000;fill-opacity:1;stroke:none;font-family:Times New Roman;-inkscape-font-specification:'Times New Roman,'"
       xml:space="preserve"><tspan
         y="243.45718"
         x="527.22949"
         id="tspan3857"
         sodipodi:role="line">Modeled</tspan><tspan
         id="tspan3859"
         y="253.45718"
         x="527.22949"
         sodipodi:role="line">Channel</tspan></text>
    <rect
       style="fill:none;fill-rule:evenodd;stroke:#000000;stroke-width:0.6;stroke-linecap:butt;stroke-linejoin:miter;stroke-opacity:1;stroke-miterlimit:4;stroke-dasharray:none"
       id="rect3861"
       width="441.78571"
       height="131.78572"
       x="127.5"
       y="96.647896" />
    <rect
       y="228.79076"
       x="127.5"
       height="131.78572"
       width="441.78571"
       id="rect3863"
       style="fill:none;stroke:#000000;stroke-width:0.60000002;stroke-linecap:butt;stroke-linejoin:miter;stroke-miterlimit:4;stroke-opacity:1;stroke-dasharray:none" />
    <path
       style="fill:none;stroke:#000000;stroke-width:1;stroke-linecap:butt;stroke-linejoin:miter;stroke-miterlimit:4;stroke-opacity:1;stroke-dasharray:3.99999999, 3.99999999;stroke-dashoffset:0"
       d="m 230.78671,111.28282 0,109.13113 m 0,24.5924 0,96.76718"
       id="path3865"
       inkscape:connector-curvature="0"
       sodipodi:nodetypes="cccc" />
    <path
       style="fill:none;stroke:#000000;stroke-width:1px;stroke-linecap:butt;stroke-linejoin:miter;stroke-opacity:1;marker-end:url(#Arrow1Mend)"
       d="m 315.71429,137.36218 33.21428,0"
       id="path3867"
       inkscape:connector-curvature="0" />
    <path
       style="fill:none;stroke:#000000;stroke-width:1px;stroke-linecap:butt;stroke-linejoin:miter;stroke-opacity:1;marker-end:url(#Arrow1Mend)"
       d="m 315.71429,256.29075 33.21428,0"
       id="path4501"
       inkscape:connector-curvature="0" />
    <text
       sodipodi:linespacing="100%"
       id="text4509"
       y="242.26628"
       x="184.85622"
       style="font-size:10px;font-style:normal;font-variant:normal;font-weight:normal;font-stretch:normal;text-align:start;line-height:100%;letter-spacing:0.1px;word-spacing:0px;writing-mode:lr-tb;text-anchor:start;fill:#000000;fill-opacity:1;stroke:none;font-family:Times New Roman;-inkscape-font-specification:'Times New Roman,'"
       xml:space="preserve"><tspan
         id="tspan4511"
         y="242.26628"
         x="184.85622"
         sodipodi:role="line">Stream Gauge Location</tspan></text>
    <text
       xml:space="preserve"
       style="font-size:10px;font-style:normal;font-variant:normal;font-weight:normal;font-stretch:normal;text-align:start;line-height:100%;letter-spacing:0.1px;word-spacing:0px;writing-mode:lr-tb;text-anchor:start;fill:#000000;fill-opacity:1;stroke:none;font-family:Times New Roman;-inkscape-font-specification:'Times New Roman,'"
       x="326.28479"
       y="146.55199"
       id="text4513"
       sodipodi:linespacing="100%"><tspan
         sodipodi:role="line"
         x="326.28479"
         y="146.55199"
         id="tspan4515">Q</tspan></text>
    <text
       sodipodi:linespacing="100%"
       id="text4517"
       y="265.48056"
       x="326.28479"
       style="font-size:10px;font-style:normal;font-variant:normal;font-weight:normal;font-stretch:normal;text-align:start;line-height:100%;letter-spacing:0.1px;word-spacing:0px;writing-mode:lr-tb;text-anchor:start;fill:#000000;fill-opacity:1;stroke:none;font-family:Times New Roman;-inkscape-font-specification:'Times New Roman,'"
       xml:space="preserve"><tspan
         id="tspan4519"
         y="265.48056"
         x="326.28479"
         sodipodi:role="line">Q</tspan></text>
    <text
       xml:space="preserve"
       style="font-size:10px;font-style:normal;font-variant:normal;font-weight:normal;font-stretch:normal;text-align:start;line-height:100%;letter-spacing:0.1px;word-spacing:0px;writing-mode:lr-tb;text-anchor:start;fill:#000000;fill-opacity:1;stroke:none;font-family:Times New Roman;-inkscape-font-specification:'Times New Roman,'"
       x="184.85622"
       y="107.98057"
       id="text4521"
       sodipodi:linespacing="100%"><tspan
         sodipodi:role="line"
         x="184.85622"
         y="107.98057"
         id="tspan4523">Stream Gauge Location</tspan></text>
    <path
       style="fill:none;stroke:none"
       d="m 127.85537,162.58506 0,-65.407381 220.4658,0 220.46579,0 0,65.407381 0,65.40737 -220.46579,0 -220.4658,0 0,-65.40737 z m 98.23734,54.6745 c 0,-2.12132 -0.007,-2.14657 -0.63135,-2.14657 -0.62391,0 -0.63134,0.0252 -0.63134,2.14657 0,2.12132 0.007,2.14658 0.63134,2.14658 0.62392,0 0.63135,-0.0253 0.63135,-2.14658 z m 227.63459,0.13712 c 1.47609,-0.56121 1.86406,-2.88614 0.67931,-4.07088 -1.85591,-1.85592 -4.5864,0.30721 -3.54905,2.81161 0.54922,1.32595 1.54503,1.76293 2.86974,1.25927 z m 14.35811,-0.25729 c 0.59963,-0.47166 1.0294,-1.35673 0.77994,-1.60618 -0.0628,-0.0628 -0.39055,0.16234 -0.72845,0.50024 -0.52917,0.52916 -0.69337,0.57273 -1.18425,0.31421 -0.68688,-0.36173 -0.93969,-0.70899 -0.94485,-1.29781 -0.003,-0.37106 0.2335,-0.44194 1.47634,-0.44194 1.44722,0 1.4775,-0.0142 1.35813,-0.63862 -0.26605,-1.39186 -2.15327,-1.83716 -3.22863,-0.76181 -0.48785,0.48787 -0.61985,0.8809 -0.61985,1.84576 0,1.27023 0.27304,1.82129 1.13642,2.29352 0.74153,0.40558 1.24365,0.35232 1.9552,-0.20737 z m -23.98915,-0.0618 c -0.47341,-0.22832 -0.56821,-0.47825 -0.56821,-1.49813 l 0,-1.22411 1.01015,0 c 1.80145,0 2.64998,-1.6918 1.53755,-3.06559 -0.42669,-0.52695 -0.73453,-0.6065 -2.65165,-0.68523 -1.46598,-0.0602 -2.1689,0.001 -2.1689,0.18938 0,0.15314 0.22729,0.27845 0.50508,0.27845 0.4754,0 0.50507,0.16836 0.50507,2.8656 0,2.72217 -0.0284,2.87931 -0.56821,3.13963 -0.46661,0.22504 -0.25213,0.27404 1.19956,0.27404 1.45169,0 1.66617,-0.049 1.19956,-0.27404 l 0,0 z m 5.03525,-0.20669 c -0.40454,-0.37687 -0.5527,-0.80866 -0.5527,-1.61058 0,-1.23952 0.3908,-1.71122 1.23488,-1.49049 0.49561,0.12961 0.56518,0.066 0.49192,-0.44993 -0.10379,-0.73104 -0.76079,-0.90464 -1.31734,-0.34808 -0.36688,0.36688 -0.40946,0.3682 -0.40946,0.0126 0,-0.47242 0.0293,-0.46882 -0.97248,-0.11961 -0.82504,0.28762 -1.07811,0.73291 -0.41648,0.73291 0.29787,0 0.37881,0.35075 0.37881,1.6415 0,0.92597 -0.11009,1.6415 -0.25254,1.6415 -0.1389,0 -0.25254,0.11364 -0.25254,0.25254 0,0.13889 0.58965,0.25254 1.31032,0.25254 l 1.31029,0 -0.55268,-0.51492 0,-10e-6 z m 9.10688,0.20669 c -0.50725,-0.24464 -0.56821,-0.45955 -0.56821,-2.00321 0,-1.6761 0.0195,-1.72918 0.63135,-1.72918 0.34724,0 0.63134,-0.11364 0.63134,-0.25254 0,-0.13889 -0.2841,-0.25253 -0.63134,-0.25253 -0.52132,0 -0.63067,-0.12103 -0.62748,-0.69448 0.003,-0.38197 0.10977,-0.86197 0.23922,-1.06667 0.19865,-0.3141 0.33484,-0.27875 0.87262,0.22647 0.4695,0.44105 0.72231,0.52807 0.96033,0.33053 0.31921,-0.26493 0.46081,-0.31108 0.95442,-0.31108 0.13889,0 0.25254,-0.21052 0.25254,-0.46782 0,-0.40423 -0.22166,-0.4716 -1.63062,-0.49561 -1.47138,-0.0251 -1.68102,0.0363 -2.14657,0.62815 -0.28378,0.36076 -0.51596,0.92471 -0.51596,1.25322 0,0.42893 -0.14236,0.59729 -0.50508,0.59729 -0.27779,0 -0.50507,0.11364 -0.50507,0.25253 0,0.1389 0.22728,0.25254 0.50507,0.25254 0.45051,0 0.50508,0.16836 0.50508,1.55848 0,1.09579 -0.12407,1.69559 -0.41795,2.02031 -0.40053,0.44259 -0.35583,0.46111 1.07329,0.44473 1.25971,-0.0144 1.40302,-0.0596 0.92302,-0.29113 z m 3.21986,0.0557 c 0,-0.13889 -0.11364,-0.25253 -0.25253,-0.25253 -0.1488,0 -0.25254,-0.89301 -0.25254,-2.17396 l 0,-2.17395 -0.69448,0.17152 c -0.9278,0.22914 -1.29259,0.60178 -0.85426,0.87267 0.55222,0.3413 0.67468,2.42707 0.18624,3.1725 l -0.41691,0.63629 1.14223,0 c 0.62824,0 1.14225,-0.11364 1.14225,-0.25254 l 0,0 z m 2.71479,-0.099 c -0.37989,-0.28838 -0.44194,-0.78365 -0.44194,-3.5275 0,-1.81148 -0.1021,-3.19203 -0.2361,-3.19203 -0.50185,0 -1.53167,0.50519 -1.53167,0.75137 0,0.14233 0.14205,0.23038 0.31567,0.19565 0.2336,-0.0467 0.33439,0.65012 0.38765,2.68049 0.0627,2.38951 0.0139,2.78775 -0.37881,3.08556 -0.39648,0.30075 -0.28347,0.34194 0.93818,0.34194 1.20834,0 1.33148,-0.0436 0.94702,-0.33548 z m -238.08033,-7.72968 c 0,-1.98663 -0.0105,-2.0203 -0.63135,-2.0203 -0.62082,0 -0.63134,0.0337 -0.63134,2.0203 0,1.98664 0.0105,2.02031 0.63134,2.02031 0.62083,0 0.63135,-0.0337 0.63135,-2.02031 z m 133.84521,-1.76696 1.6415,-2.01153 1.13642,0.12005 c 11.22861,1.18617 27.51858,1.33216 42.30014,0.37908 14.73964,-0.95037 24.852,-0.88515 38.25953,0.24676 9.27532,0.78305 11.12147,0.8645 19.82424,0.87467 10.33073,0.0121 11.68891,-0.086 22.8547,-1.65074 7.15057,-1.00203 25.08393,-4.02234 30.74652,-5.17829 l 0.82075,-0.16755 0,-8.55472 0,-8.55473 -0.63135,0 -0.63134,0 0,8.04817 0,8.04818 -0.82075,0.14284 c -0.45141,0.0786 -4.62776,0.82265 -9.28078,1.65352 -14.56167,2.60025 -25.49978,4.17481 -33.67088,4.84697 -6.11117,0.50272 -17.92991,0.18336 -29.46365,-0.79614 -8.7853,-0.74609 -10.6358,-0.82548 -19.1929,-0.82342 -7.0045,0.002 -11.80436,0.15103 -18.43528,0.57363 -11.32197,0.72157 -22.50416,0.93193 -29.4207,0.55349 -4.273,-0.23381 -12.90747,-0.87348 -22.60216,-1.67446 -9.55255,-0.78923 -37.00665,-2.19284 -52.02286,-2.6597 -14.97895,-0.46571 -21.5927,-0.1694 -42.67894,1.9121 -7.56983,0.74724 -15.41114,1.48131 -17.42513,1.63125 -3.97775,0.29614 -25.32751,0.41581 -29.42069,0.16491 -1.38896,-0.0851 -4.79823,-0.27375 -7.57615,-0.41913 -16.37634,-0.85704 -29.37161,-2.65951 -55.87265,-7.74964 l -8.90055,-1.70955 -0.001,-5.49271 -0.001,-5.4927 3.72494,0.004 c 2.04871,0.002 19.8053,0.22745 39.45908,0.50088 19.65378,0.27343 37.18308,0.49903 38.95401,0.50134 l 3.21986,0.004 0,1.26269 c 0,1.17852 0.0421,1.26269 0.63134,1.26269 0.58886,0 0.63135,-0.0846 0.63135,-1.25672 l 0,-1.25672 6.37659,0.13608 c 3.50712,0.0748 66.55011,0.92122 140.09553,1.88081 73.54542,0.9596 135.90663,1.7764 138.58045,1.81512 l 4.86154,0.0704 -1.8e-4,-0.56821 c -7e-5,-0.31251 -0.0286,-0.57999 -0.0633,-0.5944 -0.0347,-0.0144 -65.21118,-0.90348 -144.83657,-1.97574 -108.40996,-1.45988 -144.84806,-2.02418 -145.07054,-2.24666 -0.37928,-0.37928 -1.13503,-0.38442 -1.26032,-0.009 -0.0721,0.21623 -5.85178,0.21029 -23.06515,-0.0237 -12.63293,-0.17172 -23.00987,-0.35192 -23.05985,-0.40045 -0.05,-0.0485 0.78018,-1.58987 1.84481,-3.4252 1.4649,-2.52534 1.85554,-3.38781 1.60611,-3.54601 -0.41116,-0.26078 -9.29596,-0.28695 -9.29124,-0.0274 0.002,0.10417 0.90006,1.72357 1.9959,3.59867 1.09585,1.8751 1.97502,3.4251 1.95372,3.44446 -0.0213,0.0193 -8.52431,-0.0815 -18.89558,-0.22424 -10.37127,-0.14271 -19.03649,-0.19052 -19.25604,-0.10627 -0.34886,0.13387 -0.39917,0.93399 -0.39917,6.34829 0,5.27956 0.0548,6.19511 0.37088,6.19511 0.21115,0 0.31342,0.14973 0.23748,0.34765 -0.0827,0.21551 0.0883,0.40164 0.44986,0.48969 1.26724,0.30862 18.0481,3.49425 22.77606,4.32375 2.7611,0.48442 5.07386,0.93444 5.13947,1.00004 0.0656,0.0656 -0.42787,0.72334 -1.0966,1.46163 -2.74432,3.02977 -2.52474,2.68607 -2.02951,3.17675 0.48596,0.4815 0.23355,0.69283 3.73538,-3.12743 1.02025,-1.11303 1.27388,-1.26422 1.95347,-1.16448 l 0.78098,0.11463 -0.5645,0.69652 c -0.31048,0.38308 -1.00447,1.22288 -1.5422,1.86622 -0.80994,0.969 -0.92379,1.23464 -0.66356,1.5482 0.17277,0.20818 0.40693,0.3785 0.52034,0.3785 0.11342,0 1.00923,-0.94307 1.99071,-2.09571 1.69238,-1.98753 1.83016,-2.09037 2.66939,-1.9924 0.4867,0.0568 0.93629,0.18645 0.99909,0.28805 0.0628,0.10162 -0.50489,0.91297 -1.26154,1.803 -0.75664,0.89004 -1.37728,1.68957 -1.37921,1.77674 -0.002,0.0872 0.17947,0.31033 0.4031,0.49593 0.43978,0.36498 0.67884,0.15521 3.00966,-2.64087 l 1.01714,-1.22017 4.9175,0.65543 c 13.06486,1.74137 24.22604,2.44 41.58531,2.60301 16.32011,0.15325 16.87353,0.12563 36.44199,-1.81857 7.56983,-0.75209 15.46796,-1.48286 17.5514,-1.62393 10.99323,-0.74435 22.27305,-0.59732 47.60344,0.62047 11.72703,0.56379 28.56631,1.57912 28.7188,1.73161 0.033,0.033 -0.6244,0.83084 -1.46079,1.77306 -1.21925,1.37352 -1.46239,1.78343 -1.22646,2.06771 0.16184,0.19501 0.4224,0.35374 0.57901,0.35274 0.15661,-0.001 1.08025,-0.90932 2.05252,-2.01848 1.62788,-1.85708 1.84395,-2.0168 2.7306,-2.01848 l 0.96283,-0.002 -1.41438,1.66719 c -1.15078,1.35648 -1.35808,1.73501 -1.11232,2.03113 0.46708,0.5628 0.78665,0.35476 2.48057,-1.61488 1.26458,-1.47043 1.71528,-1.8309 2.28912,-1.8309 1.57326,0 1.58484,0.20567 0.10953,1.94469 -1.11157,1.31025 -1.33396,1.7136 -1.10014,1.99534 0.16119,0.19421 0.4212,0.35132 0.57781,0.34913 0.15662,-0.002 1.02343,-0.90918 1.92625,-2.01552 l 0,-5e-5 z m -133.84521,-6.18799 c 0,-2.12132 -0.007,-2.14657 -0.63135,-2.14657 -0.62391,0 -0.63134,0.0252 -0.63134,2.14657 0,2.12132 0.007,2.14657 0.63134,2.14657 0.62392,0 0.63135,-0.0252 0.63135,-2.14657 z m 0,-8.08122 c 0,-2.12132 -0.007,-2.14657 -0.63135,-2.14657 -0.62391,0 -0.63134,0.0252 -0.63134,2.14657 0,2.12132 0.007,2.14657 0.63134,2.14657 0.62392,0 0.63135,-0.0252 0.63135,-2.14657 z m -44.95179,-4.79822 0,-0.63135 -3.6618,0 -3.6618,0 0,0.63135 0,0.63134 3.6618,0 3.6618,0 0,-0.63134 z m -2.0203,-3.03046 c 0,-0.60868 -0.0589,-0.63135 -1.6415,-0.63135 -1.58257,0 -1.6415,0.0227 -1.6415,0.63135 0,0.60868 0.0589,0.63134 1.6415,0.63134 1.58257,0 1.6415,-0.0226 1.6415,-0.63134 z m 46.97209,-8.08122 c 0,-2.12132 -0.007,-2.14658 -0.63135,-2.14658 -0.62391,0 -0.63134,0.0253 -0.63134,2.14658 0,2.12132 0.007,2.14657 0.63134,2.14657 0.62392,0 0.63135,-0.0252 0.63135,-2.14657 z m 0,-8.08122 c 0,-2.12132 -0.007,-2.14658 -0.63135,-2.14658 -0.62391,0 -0.63134,0.0253 -0.63134,2.14658 0,2.12132 0.007,2.14657 0.63134,2.14657 0.62392,0 0.63135,-0.0252 0.63135,-2.14657 z m -0.0529,-8.01809 c -0.0684,-1.94242 -0.11181,-2.0889 -0.64156,-2.16414 -0.55133,-0.0783 -0.56821,-0.0164 -0.56821,2.08344 0,2.14925 0.004,2.16414 0.64156,2.16414 0.64113,0 0.64151,-0.001 0.56821,-2.08344 z m 218.37214,-5.4927 c -0.0858,-0.1389 -0.31984,-0.25254 -0.51998,-0.25254 -0.26832,0 -0.3639,-0.33164 -0.3639,-1.26269 l 0,-1.26269 1.01015,0 c 1.28564,0 2.0203,-0.68208 2.0203,-1.87571 0,-1.42341 -0.87878,-1.91613 -3.38019,-1.89527 -1.66219,0.0139 -1.94202,0.0689 -1.48117,0.29113 0.53794,0.25943 0.56821,0.42126 0.56821,3.037 0,2.55059 -0.0388,2.77313 -0.50507,2.89506 -1.04879,0.27426 -0.44356,0.57825 1.15132,0.57825 1.03998,0 1.59831,-0.094 1.50033,-0.25254 l 0,0 z m 5.17703,0.027 c 0,-0.12404 -0.17046,-0.29094 -0.37881,-0.37089 -0.30883,-0.1185 -0.3788,-0.72995 -0.3788,-3.31001 0,-2.88483 -0.0404,-3.16465 -0.45682,-3.16465 -0.25122,0 -0.67738,0.16685 -0.94702,0.37077 -0.44356,0.33549 -0.44815,0.37154 -0.0483,0.37881 0.39482,0.007 0.44194,0.31774 0.44194,2.91222 0,1.76777 -0.0988,2.90419 -0.25253,2.90419 -0.1389,0 -0.25254,0.11364 -0.25254,0.25254 0,0.13889 0.51139,0.25254 1.13642,0.25254 0.62503,0 1.13642,-0.10149 1.13642,-0.22552 z m 2.72741,-0.0775 c 0.2357,-0.2357 0.30305,-0.2357 0.30305,0 0,0.16667 0.26138,0.30305 0.58084,0.30305 0.65695,0 1.18693,-0.43102 1.18693,-0.96532 0,-0.29067 -0.0723,-0.29923 -0.37881,-0.0448 -0.33017,0.27401 -0.37881,0.10193 -0.37881,-1.34 0,-1.88966 -0.35353,-2.44807 -1.54988,-2.44807 -1.09177,0 -1.73311,0.42383 -1.73311,1.14531 0,0.82522 0.69533,0.8191 1.01015,-0.009 0.26597,-0.69957 0.50619,-0.78175 0.95964,-0.3283 0.48238,0.48237 0.37048,0.66266 -0.77024,1.24097 -1.20402,0.61042 -1.44265,0.87821 -1.44823,1.62534 -0.005,0.70143 0.46788,1.12379 1.25883,1.12379 0.36113,0 0.79297,-0.13637 0.95964,-0.30305 l 0,10e-6 z m 7.12158,0.0775 c 0,-0.12404 -0.17047,-0.29094 -0.37881,-0.37089 -0.28557,-0.10958 -0.37881,-0.57001 -0.37881,-1.87054 0,-1.0051 -0.12649,-1.85168 -0.30304,-2.02823 -0.38055,-0.38054 -1.62978,-0.39635 -1.8602,-0.0235 -0.12106,0.19589 -0.23438,0.17974 -0.37883,-0.054 -0.25385,-0.41072 -1.52099,-0.035 -1.70006,0.50411 -0.0648,0.19509 -0.003,0.27981 0.1423,0.19086 0.63423,-0.39198 0.80648,2.58931 0.18549,3.21031 -0.20834,0.20835 -0.3788,0.44375 -0.3788,0.52312 0,0.0794 1.13642,0.14431 2.52538,0.14431 1.38896,0 2.52538,-0.10149 2.52538,-0.22552 l 0,-1e-5 z m -233.39816,-2.48927 c 0.0733,-2.08207 0.0729,-2.08344 -0.56821,-2.08344 -0.63714,0 -0.64156,0.0149 -0.64156,2.16414 0,2.09984 0.0169,2.16174 0.56821,2.08344 0.52975,-0.0752 0.57318,-0.22171 0.64156,-2.16414 z m -78.73898,0.18677 c 29.03763,-4.08184 55.46816,-6.73316 72.16277,-7.23885 l 5.36644,-0.16256 0,0.67157 c 0,0.54797 0.11619,0.67156 0.63134,0.67156 0.51455,0 0.63135,-0.12376 0.63135,-0.66896 l 0,-0.66896 6.88166,0.14939 c 8.59178,0.1865 14.1387,0.80952 31.86394,3.57886 8.10416,1.26617 12.56214,1.8101 20.62384,2.51637 33.87249,2.96751 51.3145,2.86302 84.32476,-0.50519 9.38293,-0.95739 13.17115,-1.47299 26.76904,-3.64345 18.15628,-2.89806 20.4565,-3.18326 32.45115,-4.02351 21.07133,-1.4761 38.08553,-1.3609 52.90674,0.3582 8.30755,0.96359 22.83147,3.03468 33.71384,4.80754 l 1.01016,0.16456 -0.0743,-15.04829 c -0.0664,-13.43239 -0.0325,-15.04829 0.31567,-15.04829 0.2413,0 0.39002,-0.22687 0.39002,-0.59502 l 0,-0.59501 -14.38141,-0.18553 c -19.76505,-0.25499 -34.36156,0.0448 -49.13193,1.00921 -11.65527,0.76099 -34.6968,2.57998 -46.21448,3.64835 -17.02892,1.5796 -22.44935,1.9185 -36.97829,2.31196 -8.70797,0.23582 -13.73912,0.23655 -22.47589,0.003 -17.13399,-0.45752 -24.16366,-1.04499 -45.85422,-3.8321 -6.85585,-0.88093 -14.27035,-1.75481 -30.93592,-3.64615 -22.67746,-2.5736 -28.72602,-3.09857 -38.44893,-3.33703 l -6.7554,-0.16569 0,-1.47501 c 0,-1.40498 -0.03,-1.475 -0.63135,-1.475 -0.60135,0 -0.63134,0.0701 -0.63134,1.47458 l 0,1.47459 -7.63928,0.16281 c -12.31729,0.26252 -47.18623,2.01375 -68.87978,3.45936 -4.09743,0.27305 -7.76239,0.49718 -8.14435,0.49809 -0.71384,0.002 -0.96614,0.63302 -0.45984,1.15068 0.1381,0.1412 0.26799,7.17618 0.31568,17.09691 0.0642,13.36048 0.0156,16.85698 -0.23465,16.85692 -0.17362,-4e-5 -0.31567,0.10427 -0.31567,0.23181 0,0.3826 0.29506,1.03084 0.46896,1.03028 0.0893,-2.9e-4 3.40119,-0.45581 7.35972,-1.01226 z M 532.60198,121.7701 c 0.55185,-0.3441 1.25242,-1.35891 0.93811,-1.35891 -0.089,0 -0.49947,0.2841 -0.91215,0.63134 -2.01073,1.69193 -4.19677,-0.27461 -3.63485,-3.26988 0.2196,-1.17067 1.02651,-1.90715 2.0895,-1.90715 0.80514,0 1.05801,0.17942 1.9574,1.38896 0.34905,0.46943 0.37613,0.4115 0.3836,-0.82075 0.007,-1.16132 -0.29554,-1.7729 -0.53914,-1.08975 -0.0513,0.14395 -0.47833,0.13423 -1.09433,-0.0249 -2.63202,-0.68002 -4.89911,1.82883 -4.15988,4.60352 0.5571,2.09109 3.07852,3.02806 4.97174,1.84754 z m 3.8601,0.18334 c 0,-0.12404 -0.17046,-0.29094 -0.37881,-0.37089 -0.27314,-0.10481 -0.3788,-0.53254 -0.3788,-1.53336 0,-1.15311 0.0901,-1.4362 0.53219,-1.67282 0.71943,-0.38503 0.96632,-0.0751 1.14557,1.43837 0.11468,0.96837 0.0548,1.35314 -0.25926,1.66725 -0.60897,0.60895 -0.51702,0.69696 0.72807,0.69696 0.62503,0 1.13642,-0.11364 1.13642,-0.25253 0,-0.1389 -0.11364,-0.25254 -0.25254,-0.25254 -0.13889,0 -0.25254,-0.61764 -0.25254,-1.37252 0,-2.42549 -0.6349,-3.26832 -2.05755,-2.73134 l -0.72036,0.27191 0,-1.36702 c 0,-1.15052 -0.0724,-1.36702 -0.45682,-1.36702 -0.25123,0 -0.67738,0.16685 -0.94702,0.37077 -0.44356,0.33549 -0.44815,0.37154 -0.0483,0.37881 0.39482,0.007 0.44194,0.31774 0.44194,2.91222 0,2.41314 -0.064,2.90419 -0.3788,2.90419 -0.20835,0 -0.37881,0.11364 -0.37881,0.25254 0,0.13889 0.56821,0.25253 1.26269,0.25253 0.69448,0 1.26269,-0.10148 1.26269,-0.22551 z m 5.06735,-0.0359 c 0.33674,-0.1802 0.48849,-0.1802 0.48849,0 0,0.35876 0.84067,0.3299 1.21218,-0.0416 0.39747,-0.39747 0.38931,-0.9769 -0.0126,-0.89651 -0.21776,0.0435 -0.33966,-0.40415 -0.39302,-1.44336 -0.0936,-1.82185 -0.33428,-2.15531 -1.55594,-2.15531 -1.04439,0 -1.93757,0.72985 -1.68827,1.37955 0.23403,0.60987 0.85113,0.4542 1.03036,-0.25991 0.19339,-0.77054 0.995,-0.7563 1.09016,0.0194 0.0452,0.3683 -0.21986,0.63739 -0.9925,1.00757 -1.14852,0.5503 -1.51993,1.2 -1.191,2.08344 0.23224,0.62382 1.15652,0.76473 2.01217,0.30679 l 0,0 z m 4.5291,0.0359 c 0,-0.12404 -0.17046,-0.29094 -0.37881,-0.37089 -0.27067,-0.10386 -0.37881,-0.52678 -0.37881,-1.4815 0,-1.07943 0.10084,-1.39911 0.52488,-1.66392 0.8312,-0.51911 1.24289,0.0221 1.24289,1.6341 0,0.98122 -0.1067,1.4069 -0.37881,1.51132 -0.95621,0.36694 -0.17889,0.5964 2.02031,0.5964 1.43106,0 2.39911,-0.1019 2.39911,-0.25253 0,-0.1389 -0.11364,-0.25254 -0.25254,-0.25254 -0.14013,0 -0.25253,-0.67047 -0.25253,-1.50634 0,-1.27791 0.0815,-1.54995 0.53719,-1.79385 0.72987,-0.39061 0.96925,0.0344 0.97417,1.72975 0.003,0.95523 -0.10364,1.37501 -0.37494,1.47911 -0.77838,0.2987 -0.33717,0.5964 0.88388,0.5964 0.69448,0 1.26269,-0.11364 1.26269,-0.25253 0,-0.1389 -0.17046,-0.25254 -0.37881,-0.25254 -0.29824,0 -0.3788,-0.35259 -0.3788,-1.6581 0,-0.91196 -0.11764,-1.87791 -0.26143,-2.14658 -0.29628,-0.55361 -1.48071,-0.66562 -1.96091,-0.18542 -0.23569,0.2357 -0.30304,0.2357 -0.30304,0 0,-0.16668 -0.16511,-0.30305 -0.36692,-0.30305 -0.59538,0 -1.64905,0.56035 -1.50174,0.79866 0.0747,0.12085 0.24158,0.15435 0.37088,0.0744 0.13662,-0.0844 0.23508,0.60145 0.23508,1.63738 0,1.73315 -0.0174,1.78267 -0.63134,1.78267 -0.60932,0 -0.63135,-0.0578 -0.63135,-1.6581 0,-0.91196 -0.11763,-1.87791 -0.26142,-2.14658 -0.29919,-0.55901 -1.48235,-0.66399 -1.97142,-0.17491 -0.24973,0.24973 -0.35486,0.24674 -0.51641,-0.0146 -0.1319,-0.21342 -0.43821,-0.26914 -0.87575,-0.15932 -0.82578,0.20726 -1.08746,0.56987 -0.55789,0.77309 0.59483,0.22825 0.55685,3.07551 -0.0471,3.53399 -0.38555,0.29268 -0.27279,0.33651 0.88388,0.34351 0.72921,0.004 1.32583,-0.0934 1.32583,-0.21748 l 0,0 z M 557.48,121.73701 c 0.46861,-0.53365 0.8165,-1.57836 0.52558,-1.57836 -0.11483,0 -0.35075,0.22728 -0.52422,0.50508 -0.58309,0.93366 -2.33146,0.33617 -2.33146,-0.79676 0,-0.40169 0.21128,-0.46593 1.53225,-0.46593 1.47195,0 1.52543,-0.0224 1.35909,-0.56822 -0.47172,-1.54792 -2.14226,-1.97158 -3.28164,-0.83222 -0.81287,0.81287 -0.86034,2.54182 -0.0964,3.51295 0.6371,0.80996 2.19342,0.93342 2.81684,0.22346 l 0,0 z m 3.47828,0.18941 c 0,-0.1389 -0.11364,-0.25254 -0.25254,-0.25254 -0.15541,0 -0.25254,-1.26269 -0.25254,-3.283 0,-3.23737 -0.008,-3.28294 -0.56821,-3.27913 -0.73405,0.005 -1.46033,0.48509 -1.01015,0.66775 0.39525,0.16038 0.45666,5.89438 0.0631,5.89438 -0.13889,0 -0.25253,0.11364 -0.25253,0.25254 0,0.13889 0.51139,0.25253 1.13642,0.25253 0.62503,0 1.13642,-0.11364 1.13642,-0.25253 z m -27.52666,-12.47999 c 0,-3.08877 0.10614,-3.68245 0.65837,-3.68245 0.19347,0 0.35178,-0.11365 0.35178,-0.25254 0,-0.1389 -0.56821,-0.25254 -1.26269,-0.25254 -0.69448,0 -1.26269,0.11364 -1.26269,0.25254 0,0.13889 0.16829,0.25254 0.37399,0.25254 0.50007,0 0.67905,0.82781 0.58652,2.71275 l -0.0766,1.56075 -1.89404,-2.37642 c -1.84923,-2.3202 -1.91942,-2.37672 -2.96732,-2.38929 -0.59031,-0.007 -1.07329,0.10077 -1.07329,0.23967 0,0.13889 0.13311,0.25254 0.2958,0.25254 0.16268,0 0.50361,0.18807 0.75761,0.41794 0.38108,0.34489 0.46182,0.8084 0.46182,2.65165 0,1.89699 -0.0761,2.30984 -0.50508,2.73878 -0.50507,0.50508 -0.50507,0.50508 0.82075,0.47578 0.72921,-0.0161 1.12703,-0.0812 0.88406,-0.14475 -0.58033,-0.15167 -0.73675,-0.86035 -0.64437,-2.91951 l 0.076,-1.69403 2.02031,2.50902 c 1.11117,1.37997 2.10554,2.514 2.20971,2.52007 0.10417,0.006 0.1894,-1.28655 0.1894,-2.8725 l 0,0 z m 3.31575,2.61347 c 0.36366,-0.19462 0.6014,-0.18972 0.85113,0.0175 0.25466,0.21135 0.4847,0.21364 0.86775,0.009 0.60071,-0.3215 0.72698,-1.0819 0.1424,-0.85758 -0.31471,0.12077 -0.3788,-0.15683 -0.3788,-1.64054 0,-1.56171 -0.0673,-1.82191 -0.53594,-2.07272 -0.99619,-0.53315 -2.74706,0.12369 -2.74706,1.03057 0,0.75274 0.74299,0.82504 1.01897,0.0992 0.27509,-0.72354 1.06816,-0.7547 1.20438,-0.0473 0.0557,0.28949 -0.2035,0.54827 -0.7982,0.79676 -0.48444,0.2024 -1.07316,0.66161 -1.30827,1.02045 -0.39699,0.60586 -0.39798,0.6975 -0.0139,1.28378 0.44848,0.68445 0.91007,0.7827 1.69748,0.36128 l 5e-5,0 z m 4.80873,-0.14788 c 0.62132,-0.5623 0.58182,-0.85149 -0.10639,-0.77863 -0.52705,0.0558 -0.57359,-0.0519 -0.64259,-1.48662 -0.0695,-1.44659 -0.0362,-1.55407 0.51463,-1.65937 1.03364,-0.19759 1.20104,0.0139 1.20496,1.52256 0.003,0.78708 0.14695,1.71515 0.32201,2.06239 0.36077,0.71566 1.28138,0.9528 1.85401,0.47757 0.30986,-0.25718 0.42315,-0.2557 0.58591,0.008 0.1362,0.22036 0.39666,0.26063 0.80151,0.12389 0.32984,-0.11141 1.28158,-0.177 2.11495,-0.14575 1.17271,0.044 1.41533,-0.005 1.07329,-0.21582 -0.32305,-0.19928 -0.44194,-0.60339 -0.44194,-1.50211 0,-1.68329 0.17561,-2.05734 0.88267,-1.87988 0.72539,0.18206 1.07064,-0.32377 0.56563,-0.82876 -0.29289,-0.29289 -0.49628,-0.31658 -0.8934,-0.10406 -0.34449,0.18437 -0.54258,0.18988 -0.60031,0.0167 -0.0576,-0.17298 -0.35673,-0.16415 -0.90426,0.0267 -0.88454,0.30835 -1.03947,0.60187 -0.43929,0.83218 0.47505,0.1823 0.54215,3.06091 0.078,3.34775 -0.16541,0.10224 -0.34534,0.0521 -0.39984,-0.11136 -0.0545,-0.16349 -0.26009,-0.29725 -0.45684,-0.29725 -0.27686,0 -0.35777,-0.42833 -0.35777,-1.89404 l 0,-1.89404 -0.88389,0 c -0.90287,0 -1.1865,0.33491 -0.50507,0.5964 0.55167,0.2117 0.53389,2.82559 -0.0207,3.03839 -1.00685,0.38638 -1.11571,0.21655 -1.11571,-1.74075 l 0,-1.89404 -1.51523,0 -1.51523,0 0,-0.77559 0,-0.7756 -0.88389,0.93719 c -1.00227,1.06272 -1.0277,1.11908 -0.50507,1.11908 0.30282,0 0.37881,0.37741 0.37881,1.88149 0,1.52547 0.0836,1.93019 0.44194,2.13889 0.61531,0.35838 0.83883,0.33468 1.36908,-0.14518 l 0,0 z m 11.2011,0.0657 c 0.41707,-0.30495 0.52122,-0.29835 0.77527,0.0491 0.26714,0.36532 0.35297,0.36241 0.95548,-0.0324 0.70675,-0.46308 0.91517,-1.07837 0.28314,-0.83584 -0.29622,0.11367 -0.3788,-0.0662 -0.3788,-0.8253 0,-2.44532 -0.5847,-3.2375 -2.17009,-2.94008 -1.07263,0.20123 -1.59798,1.02436 -1.02167,1.60068 0.35575,0.35575 0.41745,0.32897 0.64976,-0.282 0.31441,-0.827 1.27931,-0.95051 1.27931,-0.16375 0,0.32536 -0.25242,0.60729 -0.69403,0.77519 -1.03972,0.3953 -1.57882,0.98689 -1.57882,1.73257 0,1.18249 0.92821,1.63271 1.90045,0.92178 l 0,0 z m 4.55731,-0.29711 c -0.3182,-0.31819 -0.39684,-1.01889 -0.39684,-3.53553 0,-1.82078 -0.10104,-3.13869 -0.24064,-3.13869 -0.42131,0 -1.52713,0.57795 -1.52713,0.79815 0,0.1166 0.17047,0.212 0.37881,0.212 0.31332,0 0.37881,0.47141 0.37881,2.72742 0,1.7846 -0.10476,2.83216 -0.30305,3.03045 -0.23569,0.23571 -0.0353,0.30305 0.90192,0.30305 1.09543,0 1.16889,-0.0361 0.80812,-0.39685 z M 237.18633,109.9402 c 0.74075,-0.38307 1.02821,-0.84788 1.02821,-1.66261 0,-0.64703 -0.74959,-0.99839 -2.12997,-0.99839 -1.42003,0 -1.51374,-0.38284 -0.14719,-0.60136 1.12563,-0.17999 1.91973,-1.07959 1.6988,-1.92446 -0.0857,-0.32783 -0.008,-0.50463 0.2232,-0.50463 0.19534,0 0.35516,-0.0867 0.35516,-0.19278 0,-0.28687 -2.47119,-0.82029 -2.97446,-0.64206 -1.2452,0.441 -1.75259,1.88009 -0.94692,2.68576 0.32733,0.32733 0.32539,0.41025 -0.0162,0.69378 -0.22161,0.18392 -0.33326,0.54664 -0.26035,0.84582 0.0702,0.2881 -0.0283,0.73374 -0.21896,0.99031 -0.19063,0.25657 -0.28179,0.63541 -0.20256,0.84188 0.31687,0.82574 2.38014,1.09504 3.59127,0.46874 l 1e-5,0 z m -47.83229,-2.26486 c 0.38497,-0.38497 0.62572,-0.91424 0.62572,-1.3756 0,-0.77686 -0.24808,-1.03602 -2.46225,-2.57221 -1.13525,-0.78763 -1.31375,-1.23767 -0.69471,-1.75144 0.57474,-0.47699 1.79899,0.12078 2.11728,1.03382 0.36792,1.05543 0.5346,0.90711 0.5346,-0.47575 l 0,-1.20951 -1.50882,-0.0596 c -1.8989,-0.075 -2.60396,0.47106 -2.48304,1.92307 0.0673,0.80783 0.24447,1.03754 1.34021,1.73735 1.79465,1.14618 2.17742,1.57168 1.89259,2.10388 -0.5402,1.00938 -2.14696,0.69575 -2.60123,-0.50774 -0.41576,-1.10148 -0.68033,-0.9296 -0.68025,0.44191 l 6e-5,1.19956 1.64707,0.069 c 1.46536,0.0614 1.71609,-4e-5 2.27277,-0.55673 l 0,0 z m 5.12206,0.35923 1.59215,0.0298 -0.51887,-0.51887 c -0.32944,-0.32944 -0.51886,-0.8476 -0.51886,-1.41935 0,-1.30558 0.35434,-1.83621 1.12748,-1.68841 0.51355,0.0982 0.64029,0.022 0.64029,-0.3851 0,-0.69545 -0.72663,-0.9204 -1.29922,-0.40222 -0.43354,0.39235 -0.46855,0.39281 -0.46855,0.006 0,-0.48488 -0.11351,-0.51012 -0.75354,-0.16759 -0.2573,0.1377 -0.81803,0.18032 -1.24609,0.0947 -0.65279,-0.13056 -0.77829,-0.27273 -0.77829,-0.88171 0,-0.89667 -0.32795,-0.93686 -0.71489,-0.0876 -0.15999,0.35114 -0.46234,0.70422 -0.67189,0.78463 -0.49197,0.18879 -0.49346,0.59724 -0.002,0.59724 0.30212,0 0.37881,0.37319 0.37881,1.84353 0,1.98635 0.29073,2.57991 1.13642,2.32014 0.27779,-0.0853 1.22154,-0.14172 2.09723,-0.12531 z m 5.99547,-0.36508 c 0.34092,-0.34093 0.61986,-0.79549 0.61986,-1.01015 0,-0.5152 -0.15041,-0.49241 -0.75761,0.11479 -0.67704,0.67704 -1.1229,0.63618 -1.74944,-0.16033 -0.87854,-1.11689 -0.70431,-1.3549 0.99183,-1.3549 1.30444,0 1.51522,-0.0648 1.51522,-0.46594 0,-1.23207 -2.23231,-1.87388 -3.26549,-0.93886 -0.58377,0.52831 -0.90581,1.85985 -0.67358,2.78511 0.39767,1.58446 2.20426,2.14523 3.31921,1.03028 l 0,0 z m 3.12265,0.38664 c 0.21861,-0.13839 0.53021,-0.11683 0.80662,0.0558 0.355,0.2217 0.56039,0.18176 0.96962,-0.18859 0.60761,-0.54988 0.68277,-0.94358 0.14039,-0.73545 -0.31308,0.12014 -0.37881,-0.14313 -0.37881,-1.51733 0,-1.50038 -0.0624,-1.70359 -0.63929,-2.08158 -1.11656,-0.7316 -2.97973,0.17745 -2.56718,1.25254 0.21056,0.54871 0.93363,0.25069 0.93363,-0.38481 0,-0.36897 0.14454,-0.475 0.56563,-0.41492 0.97641,0.1393 0.81162,0.83622 -0.31819,1.34569 -1.47382,0.6646 -1.92916,1.68917 -1.11328,2.50504 0.44169,0.4417 1.06151,0.50505 1.60086,0.16362 l 0,0 z m 18.57227,-0.0598 c 0.57305,-0.2611 0.64322,-0.44103 0.64322,-1.64942 0,-0.97268 0.10716,-1.39747 0.37881,-1.50171 0.80502,-0.30892 0.3181,-0.5964 -1.01015,-0.5964 -0.76393,0 -1.38896,0.11364 -1.38896,0.25254 0,0.13889 0.17046,0.25253 0.37881,0.25253 0.28987,0 0.3788,0.31965 0.3788,1.36159 0,1.24866 -0.0534,1.37497 -0.64362,1.52312 -2.08998,0.52455 -3.69331,-2.7037 -2.39794,-4.82817 0.87854,-1.44084 3.19366,-1.33428 3.67077,0.16897 0.28547,0.89943 0.66525,0.54866 0.58487,-0.54021 l -0.0777,-1.05201 -1.67969,-0.10379 c -2.82055,-0.1743 -4.25213,1.0459 -4.25402,3.62585 -0.001,1.48607 0.60951,2.47168 1.87168,3.02123 0.96893,0.42187 2.69342,0.45392 3.54507,0.0659 l 0,0 z m 3.80638,-0.0592 c 0.41704,-0.30495 0.52119,-0.29835 0.77526,0.0491 0.26713,0.36533 0.35297,0.36242 0.95546,-0.0324 0.70675,-0.46308 0.91519,-1.07837 0.28316,-0.83584 -0.29623,0.11367 -0.37881,-0.0662 -0.37881,-0.8253 0,-2.44532 -0.58471,-3.2375 -2.1701,-2.94008 -1.07261,0.20123 -1.59798,1.02436 -1.02166,1.60068 0.35575,0.35575 0.41746,0.32897 0.64975,-0.282 0.31443,-0.827 1.27932,-0.95051 1.27932,-0.16375 0,0.32536 -0.25241,0.60729 -0.69402,0.77519 -1.03973,0.3953 -1.57883,0.98689 -1.57883,1.73257 0,1.18249 0.92822,1.63271 1.90047,0.92178 z m 5.21385,-0.0657 c 0.42974,-0.3889 0.46183,-0.3889 0.46183,0 0,0.4939 0.25296,0.52199 1.12454,0.12487 0.7101,-0.32354 0.85522,-0.71708 0.26442,-0.71708 -0.30305,0 -0.37881,-0.3788 -0.37881,-1.89403 l 0,-1.89404 -0.88388,0 c -0.91051,0 -1.18485,0.33555 -0.49178,0.60151 0.54638,0.20966 0.41001,2.64865 -0.16838,3.01134 -0.88973,0.55793 -1.23388,0.0455 -1.23388,-1.83715 l 0,-1.7757 -0.88388,0 c -0.48614,0 -0.88388,0.11365 -0.88388,0.25254 0,0.1389 0.17046,0.25254 0.3788,0.25254 0.29649,0 0.37881,0.3445 0.37881,1.58531 0,2.38191 1.05827,3.42821 2.31609,2.28989 z m 10.42577,0.26108 c 0.45978,-0.17644 1.26503,-1.57778 1.03742,-1.80539 -0.0812,-0.0812 -0.37807,0.0999 -0.6598,0.40227 -0.28174,0.30241 -0.67829,0.54983 -0.88122,0.54983 -0.53546,0 -1.37912,-0.92691 -1.37912,-1.51522 0,-0.44896 0.16836,-0.50508 1.51523,-0.50508 1.12481,0 1.51523,-0.0904 1.51523,-0.35083 0,-0.6151 -0.85712,-1.41025 -1.69452,-1.57199 -0.67842,-0.13104 -0.93584,-0.0314 -1.57836,0.61116 -1.84468,1.84468 -0.20265,5.0785 2.12514,4.18525 z m 13.95167,-0.22272 c 1.38299,-0.96869 1.25327,-3.55273 -0.21649,-4.31278 -1.60892,-0.832 -3.24353,0.32229 -3.24353,2.29044 0,1.96758 1.92872,3.0949 3.46002,2.02234 z m 4.79208,-0.18862 c 0.5816,-0.64613 0.92459,-1.4521 0.61795,-1.4521 -0.11301,0 -0.41116,0.22729 -0.66256,0.50508 -0.5285,0.58399 -1.20402,0.6534 -1.60908,0.16533 -0.45209,-0.54473 -0.61255,-1.82606 -0.30147,-2.40732 0.36241,-0.67716 1.19454,-0.69543 1.40547,-0.0309 0.20718,0.65277 1.13642,0.67805 1.13642,0.0309 0,-1.28139 -2.20562,-1.58992 -3.18945,-0.44616 -0.87222,1.01402 -0.83866,2.74227 0.0696,3.58402 0.83642,0.77516 1.86272,0.79586 2.53312,0.0511 l 0,0 z m 3.1229,0.3099 c 0.34214,-0.18311 0.62728,-0.16799 0.97942,0.0519 0.41312,0.258 0.5842,0.23112 1.01597,-0.15964 0.60584,-0.54827 0.68724,-1.01518 0.1404,-0.80534 -0.31257,0.11995 -0.37881,-0.13925 -0.37881,-1.48239 0,-1.46299 -0.0647,-1.67015 -0.63929,-2.04663 -1.13726,-0.74516 -2.97834,0.18109 -2.55464,1.28524 0.13793,0.35944 0.23935,0.38356 0.54527,0.12967 0.2067,-0.17154 0.37582,-0.46845 0.37582,-0.65979 0,-0.50214 0.92511,-0.42868 1.12385,0.0892 0.0923,0.24042 0.076,0.46969 -0.0361,0.50948 -0.11212,0.0398 -0.65843,0.32893 -1.21401,0.6425 -0.74125,0.41838 -1.03182,0.7574 -1.09154,1.27356 -0.13934,1.20437 0.66163,1.74592 1.73367,1.17218 l 0,0 z m 4.80404,-0.003 c 0.67049,-0.35883 0.65664,-1.08867 -0.0166,-0.87499 -0.47008,0.14919 -0.50508,0.0454 -0.50508,-1.49821 0,-1.49016 0.0513,-1.65852 0.50508,-1.65852 0.27779,0 0.50508,-0.11364 0.50508,-0.25254 0,-0.13889 -0.22729,-0.25254 -0.50508,-0.25254 -0.39284,0 -0.50508,-0.16836 -0.50508,-0.75761 0,-0.41669 -0.11364,-0.75762 -0.25254,-0.75762 -0.13889,0 -0.25253,0.10172 -0.25253,0.22604 0,0.12431 -0.28215,0.49365 -0.62699,0.82074 -0.72028,0.68322 -0.79689,0.97353 -0.2569,0.97353 0.30213,0 0.37881,0.37319 0.37881,1.84353 0,2.27011 0.37577,2.8069 1.53183,2.18819 l 0,0 z m 7.41712,-0.37636 c 1.67167,-1.80376 0.35722,-4.77762 -1.89324,-4.28333 -1.70963,0.37549 -2.40758,3.02621 -1.13254,4.30125 0.85484,0.85485 2.22445,0.84674 3.02578,-0.0179 l 0,0 z m -67.60093,0.11248 c -0.3321,-0.19342 -0.44194,-0.58696 -0.44194,-1.58331 0,-1.37337 0.29887,-1.93199 1.03364,-1.93199 0.55093,0 0.73412,0.50616 0.73412,2.02841 0,0.90452 -0.11681,1.29752 -0.44194,1.48689 -0.31951,0.1861 0.29263,0.25401 2.20971,0.24515 1.45841,-0.007 2.5096,-0.0696 2.33598,-0.13963 -0.18095,-0.073 -0.31686,-0.57645 -0.31846,-1.17962 -0.005,-2.01707 -0.28049,-2.97111 -0.94416,-3.2735 -0.48959,-0.22307 -0.76532,-0.20027 -1.30184,0.10765 -0.61298,0.3518 -0.73891,0.352 -1.2661,0.002 -0.52974,-0.35173 -0.65464,-0.34898 -1.31319,0.029 -0.61333,0.35199 -0.72776,0.35995 -0.72776,0.0506 0,-0.43954 0.0243,-0.4373 -0.97247,-0.0898 -0.82506,0.28761 -1.07811,0.73291 -0.41649,0.73291 0.59538,0 0.53854,3.16486 -0.0631,3.5153 -0.3386,0.19722 -0.11717,0.25741 0.94702,0.25741 1.06419,0 1.28562,-0.0602 0.94702,-0.25741 l 0,0 z m 43.25274,-0.62803 c 0.27297,-0.8271 0.0829,-1.68977 -0.198,-0.89853 -0.30801,0.86768 -1.0955,1.32212 -2.15741,1.24496 l -1.05944,-0.077 -0.0719,-2.73613 c -0.0675,-2.57027 -0.0407,-2.74429 0.44195,-2.87051 1.02161,-0.26716 0.48105,-0.58054 -1.0014,-0.58054 -1.43591,0 -1.96585,0.27812 -1.13642,0.5964 0.30513,0.11709 0.37881,0.68877 0.37881,2.93935 0,2.66143 -0.027,2.80481 -0.56821,3.02237 -0.39199,0.15756 0.30681,0.23336 2.25326,0.2444 l 2.82147,0.016 0.29729,-0.9008 0,0 z m 19.88179,0.62803 c -0.36572,-0.21301 -0.44194,-0.62544 -0.44194,-2.39143 0,-1.17371 -0.0399,-2.13403 -0.0886,-2.13403 -0.0487,0 -0.44646,0.12476 -0.88388,0.27725 -0.82506,0.28761 -1.0781,0.73291 -0.41649,0.73291 0.59539,0 0.53855,3.16486 -0.0631,3.5153 -0.33861,0.19722 -0.11717,0.25741 0.94701,0.25741 1.06419,0 1.28562,-0.0602 0.94702,-0.25741 l 0,0 z m 10.35407,0 c -0.35312,-0.20567 -0.44195,-0.60655 -0.44195,-1.99458 0,-2.25207 -0.54777,-2.93126 -1.81648,-2.25226 -0.38072,0.20375 -0.56736,0.20294 -0.69465,-0.003 -0.1278,-0.20677 -0.38777,-0.20714 -0.97804,-0.001 -0.91732,0.31978 -0.94506,0.37839 -0.42517,0.89828 0.49754,0.49754 0.48891,2.34601 -0.0143,3.06446 l -0.39312,0.56126 2.60283,-0.008 c 1.89172,-0.006 2.48209,-0.078 2.1609,-0.26509 z m -10.84158,-6.24987 c 0.0524,-0.35645 -0.0528,-0.54843 -0.30077,-0.54843 -0.49108,0 -0.74933,0.42303 -0.55979,0.91698 0.20565,0.53591 0.76257,0.2974 0.86056,-0.36855 l 0,0 z"
       id="path4529"
       inkscape:connector-curvature="0" />
    <path
       style="fill:none;stroke:none"
       d="m 454.38719,205.84336 c -0.76393,-0.0466 -5.87783,-0.44781 -11.36422,-0.89146 -12.86927,-1.04067 -23.6923,-1.10292 -37.62818,-0.21643 -11.3295,0.72069 -22.50893,0.9306 -29.4207,0.55242 -4.273,-0.23381 -12.90747,-0.87348 -22.60216,-1.67446 -9.55255,-0.78923 -37.00665,-2.19284 -52.02286,-2.6597 -14.97895,-0.46571 -21.5927,-0.1694 -42.67894,1.9121 -7.56983,0.74724 -15.41114,1.48131 -17.42513,1.63125 -3.97775,0.29614 -25.32751,0.41581 -29.42069,0.16491 -1.38896,-0.0851 -4.79823,-0.27375 -7.57615,-0.41913 -16.37634,-0.85704 -29.37161,-2.65951 -55.87265,-7.74964 l -8.90055,-1.70955 -0.001,-5.49271 -0.001,-5.4927 3.85121,0.004 c 2.11816,0.002 19.87475,0.22767 39.45908,0.50117 19.58433,0.27349 37.05681,0.49902 38.82774,0.50117 l 3.21986,0.004 0,1.26269 c 0,1.17851 0.0421,1.26269 0.63134,1.26269 0.59092,0 0.63135,-0.0825 0.63135,-1.28802 l 0,-1.28802 4.48255,0.15107 c 2.46541,0.0831 67.49713,0.95759 144.51495,1.94333 77.01782,0.98575 140.28809,1.84047 140.60061,1.89938 0.56712,0.10691 0.56821,0.11687 0.56821,5.24629 l 0,5.13918 -0.82075,0.14284 c -0.45141,0.0786 -4.62776,0.82265 -9.28078,1.65352 -14.04753,2.50844 -23.88955,3.94987 -32.17459,4.71221 -3.68996,0.33952 -15.34798,0.4572 -19.59572,0.19779 l 0,0 z m -228.29448,-4.4937 c 0,-2.12132 -0.007,-2.14657 -0.63135,-2.14657 -0.62391,0 -0.63134,0.0252 -0.63134,2.14657 0,2.12132 0.007,2.14657 0.63134,2.14657 0.62392,0 0.63135,-0.0252 0.63135,-2.14657 z m 0,-8.08122 c 0,-2.12132 -0.007,-2.14657 -0.63135,-2.14657 -0.62391,0 -0.63134,0.0252 -0.63134,2.14657 0,2.12132 0.007,2.14657 0.63134,2.14657 0.62392,0 0.63135,-0.0252 0.63135,-2.14657 z m -44.95179,-4.79822 0,-0.63135 -3.6618,0 -3.6618,0 0,0.63135 0,0.63134 3.6618,0 3.6618,0 0,-0.63134 z m -2.0203,-3.03046 c 0,-0.60868 -0.0589,-0.63135 -1.6415,-0.63135 -1.58257,0 -1.6415,0.0227 -1.6415,0.63135 0,0.60868 0.0589,0.63134 1.6415,0.63134 1.58257,0 1.6415,-0.0227 1.6415,-0.63134 z"
       id="path4531"
       inkscape:connector-curvature="0" />
    <path
       style="fill:none;stroke:none"
       d="m 454.38719,205.84336 c -0.76393,-0.0466 -5.87783,-0.44781 -11.36422,-0.89146 -12.86927,-1.04067 -23.6923,-1.10292 -37.62818,-0.21643 -11.3295,0.72069 -22.50893,0.9306 -29.4207,0.55242 -4.273,-0.23381 -12.90747,-0.87348 -22.60216,-1.67446 -9.55255,-0.78923 -37.00665,-2.19284 -52.02286,-2.6597 -14.97895,-0.46571 -21.5927,-0.1694 -42.67894,1.9121 -7.56983,0.74724 -15.41114,1.48131 -17.42513,1.63125 -3.97775,0.29614 -25.32751,0.41581 -29.42069,0.16491 -1.38896,-0.0851 -4.79823,-0.27375 -7.57615,-0.41913 -16.37634,-0.85704 -29.37161,-2.65951 -55.87265,-7.74964 l -8.90055,-1.70955 -0.001,-5.49271 -0.001,-5.4927 3.85121,0.004 c 2.11816,0.002 19.87475,0.22767 39.45908,0.50117 19.58433,0.27349 37.05681,0.49902 38.82774,0.50117 l 3.21986,0.004 0,1.26269 c 0,1.17851 0.0421,1.26269 0.63134,1.26269 0.59092,0 0.63135,-0.0825 0.63135,-1.28802 l 0,-1.28802 4.48255,0.15107 c 2.46541,0.0831 67.49713,0.95759 144.51495,1.94333 77.01782,0.98575 140.28809,1.84047 140.60061,1.89938 0.56712,0.10691 0.56821,0.11687 0.56821,5.24629 l 0,5.13918 -0.82075,0.14284 c -0.45141,0.0786 -4.62776,0.82265 -9.28078,1.65352 -14.04753,2.50844 -23.88955,3.94987 -32.17459,4.71221 -3.68996,0.33952 -15.34798,0.4572 -19.59572,0.19779 l 0,0 z m -228.29448,-4.4937 c 0,-2.12132 -0.007,-2.14657 -0.63135,-2.14657 -0.62391,0 -0.63134,0.0252 -0.63134,2.14657 0,2.12132 0.007,2.14657 0.63134,2.14657 0.62392,0 0.63135,-0.0252 0.63135,-2.14657 z m 0,-8.08122 c 0,-2.12132 -0.007,-2.14657 -0.63135,-2.14657 -0.62391,0 -0.63134,0.0252 -0.63134,2.14657 0,2.12132 0.007,2.14657 0.63134,2.14657 0.62392,0 0.63135,-0.0252 0.63135,-2.14657 z m -44.95179,-4.79822 0,-0.63135 -3.6618,0 -3.6618,0 0,0.63135 0,0.63134 3.6618,0 3.6618,0 0,-0.63134 z m -2.0203,-3.03046 c 0,-0.60868 -0.0589,-0.63135 -1.6415,-0.63135 -1.58257,0 -1.6415,0.0227 -1.6415,0.63135 0,0.60868 0.0589,0.63134 1.6415,0.63134 1.58257,0 1.6415,-0.0227 1.6415,-0.63134 z"
       id="path4533"
       inkscape:connector-curvature="0" />
    <path
       style="fill:#96d4f5;stroke:none;fill-opacity:0.42920354"
       d="m 454.38719,205.84336 c -0.76393,-0.0466 -5.87783,-0.44781 -11.36422,-0.89146 -12.86578,-1.04039 -23.68944,-1.1028 -37.62818,-0.21697 -17.43282,1.10788 -25.27396,1.01949 -44.44672,-0.50103 -27.37042,-2.17063 -61.83628,-3.74631 -74.49875,-3.40587 -8.45897,0.22743 -12.27642,0.50747 -27.77919,2.0378 -7.56983,0.74724 -15.41114,1.48131 -17.42513,1.63125 -3.97775,0.29614 -25.32751,0.41581 -29.42069,0.16491 -1.38896,-0.0851 -4.79823,-0.27375 -7.57615,-0.41913 -16.37634,-0.85704 -29.37161,-2.65951 -55.87265,-7.74964 l -8.90055,-1.70955 -0.001,-5.49271 -0.001,-5.4927 0.56821,-0.0135 c 2.13047,-0.0504 375.20013,4.88254 375.65048,4.96713 0.56715,0.10652 0.56821,0.11636 0.56821,5.24589 l 0,5.13918 -0.82075,0.14284 c -0.45141,0.0786 -4.62776,0.82265 -9.28078,1.65352 -14.04753,2.50844 -23.88955,3.94987 -32.17459,4.71221 -3.68996,0.33952 -15.34798,0.4572 -19.59572,0.19779 l 0,0 z m -273.24627,-17.37314 0,-0.63135 -3.6618,0 -3.6618,0 0,0.63135 0,0.63134 3.6618,0 3.6618,0 0,-0.63134 z m -2.0203,-3.03046 c 0,-0.60868 -0.0589,-0.63135 -1.6415,-0.63135 -1.58257,0 -1.6415,0.0227 -1.6415,0.63135 0,0.60868 0.0589,0.63134 1.6415,0.63134 1.58257,0 1.6415,-0.0227 1.6415,-0.63134 z"
       id="path4535"
       inkscape:connector-curvature="0" />
  </g>
</svg>
